HIERARCHY
ROOT Hips
{
  OFFSET 1.73907 43.2358 0.0522707
  CHANNELS 6 Xposition Yposition Zposition Zrotation Xrotation Yrotation
  JOINT Bip01_Pelvis
  {
    OFFSET 0 0 0
    CHANNELS 6 Xposition Yposition Zposition Zrotation Xrotation Yrotation
    JOINT BN_Tail_01
    {
      OFFSET -2.28979 -2.39917 0
      CHANNELS 6 Xposition Yposition Zposition Zrotation Xrotation Yrotation
      JOINT BN_Tail_02
      {
        OFFSET 9.67405 0 0
        CHANNELS 6 Xposition Yposition Zposition Zrotation Xrotation Yrotation
        JOINT BN_Tail_03
        {
          OFFSET 10.5192 0 -1.14441e-005
          CHANNELS 6 Xposition Yposition Zposition Zrotation Xrotation Yrotation
          JOINT BN_Tail_04
          {
            OFFSET 8.16754 0 0
            CHANNELS 6 Xposition Yposition Zposition Zrotation Xrotation Yrotation
            End Site
            {
              OFFSET 0 0 0
            }
          }
        }
      }
    }
    JOINT Bip01_Spine
    {
      OFFSET 2.25317 -0.00479889 0
      CHANNELS 6 Xposition Yposition Zposition Zrotation Xrotation Yrotation
      JOINT Bip01_R_Thigh
      {
        OFFSET -2.32652 -0.461891 -2.25534
        CHANNELS 6 Xposition Yposition Zposition Zrotation Xrotation Yrotation
        JOINT Bip01_R_Calf
        {
          OFFSET 9.47902 0 0
          CHANNELS 6 Xposition Yposition Zposition Zrotation Xrotation Yrotation
          JOINT Bip01_R_Foot
          {
            OFFSET 8.42616 0 0
            CHANNELS 6 Xposition Yposition Zposition Zrotation Xrotation Yrotation
            JOINT Bip01_R_Toe1
            {
              OFFSET 1.4015 3.97627 -1.33795
              CHANNELS 6 Xposition Yposition Zposition Zrotation Xrotation Yrotation
              JOINT Bip01_R_Toe11
              {
                OFFSET 2.94553 0 0
                CHANNELS 6 Xposition Yposition Zposition Zrotation Xrotation Yrotation
                JOINT Bip01_R_Toe1Nub
                {
                  OFFSET 2.52656 0 0
                  CHANNELS 6 Xposition Yposition Zposition Zrotation Xrotation Yrotation
                  End Site
                  {
                    OFFSET 0 0 0
                  }
                }
              }
            }
            JOINT Bip01_R_Toe0
            {
              OFFSET 2.09729 6.93129 0.0277901
              CHANNELS 6 Xposition Yposition Zposition Zrotation Xrotation Yrotation
              JOINT Bip01_R_Toe01
              {
                OFFSET 3.0714 0 0
                CHANNELS 6 Xposition Yposition Zposition Zrotation Xrotation Yrotation
                JOINT Bip01_R_Toe0Nub
                {
                  OFFSET 3.37999 0 0
                  CHANNELS 6 Xposition Yposition Zposition Zrotation Xrotation Yrotation
                  End Site
                  {
                    OFFSET 0 0 0
                  }
                }
              }
            }
          }
        }
      }
      JOINT Bip01_L_Thigh
      {
        OFFSET -2.07803 -0.462101 2.48614
        CHANNELS 6 Xposition Yposition Zposition Zrotation Xrotation Yrotation
        JOINT Bip01_L_Calf
        {
          OFFSET 9.47902 0 0
          CHANNELS 6 Xposition Yposition Zposition Zrotation Xrotation Yrotation
          JOINT Bip01_L_Foot
          {
            OFFSET 8.42617 0 0
            CHANNELS 6 Xposition Yposition Zposition Zrotation Xrotation Yrotation
            JOINT Bip01_L_Toe1
            {
              OFFSET 1.40151 3.97627 1.33796
              CHANNELS 6 Xposition Yposition Zposition Zrotation Xrotation Yrotation
              JOINT Bip01_L_Toe11
              {
                OFFSET 2.94554 0 0
                CHANNELS 6 Xposition Yposition Zposition Zrotation Xrotation Yrotation
                JOINT Bip01_L_Toe1Nub
                {
                  OFFSET 2.52656 0 0
                  CHANNELS 6 Xposition Yposition Zposition Zrotation Xrotation Yrotation
                  End Site
                  {
                    OFFSET 0 0 0
                  }
                }
              }
            }
            JOINT Bip01_L_Toe0
            {
              OFFSET 2.0973 6.93128 -0.0277834
              CHANNELS 6 Xposition Yposition Zposition Zrotation Xrotation Yrotation
              JOINT Bip01_L_Toe01
              {
                OFFSET 3.07141 0 0
                CHANNELS 6 Xposition Yposition Zposition Zrotation Xrotation Yrotation
                JOINT Bip01_L_Toe0Nub
                {
                  OFFSET 3.37999 0 0
                  CHANNELS 6 Xposition Yposition Zposition Zrotation Xrotation Yrotation
                  End Site
                  {
                    OFFSET 0 0 0
                  }
                }
              }
            }
          }
        }
      }
      JOINT Bip01_Spine1
      {
        OFFSET 6.17162 -0.00484467 0
        CHANNELS 6 Xposition Yposition Zposition Zrotation Xrotation Yrotation
        JOINT BN_R_Clavicle_01
        {
          OFFSET 6.15897 -2.02444 -2.78435
          CHANNELS 6 Xposition Yposition Zposition Zrotation Xrotation Yrotation
          JOINT BN_R_UpperArm_01
          {
            OFFSET 3.43915 0 0
            CHANNELS 6 Xposition Yposition Zposition Zrotation Xrotation Yrotation
            JOINT BN_R__Forearm_01
            {
              OFFSET 10.2529 0 0
              CHANNELS 6 Xposition Yposition Zposition Zrotation Xrotation Yrotation
              JOINT BN_R_Hand_01
              {
                OFFSET 16.2051 0 0
                CHANNELS 6 Xposition Yposition Zposition Zrotation Xrotation Yrotation
                JOINT BN_R_Finger_07
                {
                  OFFSET 2.2539 2.19923 0.192043
                  CHANNELS 6 Xposition Yposition Zposition Zrotation Xrotation Yrotation
                  End Site
                  {
                    OFFSET 0 0 0
                  }
                }
                JOINT BN_R_Finger_01
                {
                  OFFSET 2.17806 -1.99631 -0.219296
                  CHANNELS 6 Xposition Yposition Zposition Zrotation Xrotation Yrotation
                  End Site
                  {
                    OFFSET 0 0 0
                  }
                }
                JOINT BN_R_Finger_05
                {
                  OFFSET 3.30715 1.42802 0.17391
                  CHANNELS 6 Xposition Yposition Zposition Zrotation Xrotation Yrotation
                  End Site
                  {
                    OFFSET 0 0 0
                  }
                }
                JOINT BN_R_Finger_03
                {
                  OFFSET 3.93641 -0.769831 0.580946
                  CHANNELS 6 Xposition Yposition Zposition Zrotation Xrotation Yrotation
                  End Site
                  {
                    OFFSET 0 0 0
                  }
                }
              }
            }
          }
        }
        JOINT BN_L_Clavicle_01
        {
          OFFSET 6.15897 -2.02445 2.78458
          CHANNELS 6 Xposition Yposition Zposition Zrotation Xrotation Yrotation
          JOINT BN_L_UpperArm_01
          {
            OFFSET 3.43915 0 0
            CHANNELS 6 Xposition Yposition Zposition Zrotation Xrotation Yrotation
            JOINT BN_L__Forearm_01
            {
              OFFSET 10.2529 0 0
              CHANNELS 6 Xposition Yposition Zposition Zrotation Xrotation Yrotation
              JOINT BN_L_Hand_01
              {
                OFFSET 16.2051 0 0
                CHANNELS 6 Xposition Yposition Zposition Zrotation Xrotation Yrotation
                JOINT BN_L_Finger_05
                {
                  OFFSET 3.30715 -1.42803 0.173891
                  CHANNELS 6 Xposition Yposition Zposition Zrotation Xrotation Yrotation
                  End Site
                  {
                    OFFSET 0 0 0
                  }
                }
                JOINT BN_L_Finger_07
                {
                  OFFSET 2.2539 -2.19925 0.19203
                  CHANNELS 6 Xposition Yposition Zposition Zrotation Xrotation Yrotation
                  End Site
                  {
                    OFFSET 0 0 0
                  }
                }
                JOINT BN_L_Finger_01
                {
                  OFFSET 2.17804 1.99629 -0.219303
                  CHANNELS 6 Xposition Yposition Zposition Zrotation Xrotation Yrotation
                  End Site
                  {
                    OFFSET 0 0 0
                  }
                }
                JOINT BN_L_Finger_03
                {
                  OFFSET 3.9364 0.769825 0.580943
                  CHANNELS 6 Xposition Yposition Zposition Zrotation Xrotation Yrotation
                  End Site
                  {
                    OFFSET 0 0 0
                  }
                }
              }
            }
          }
        }
        JOINT Bip01_Neck
        {
          OFFSET 7.02381 -0.81237 0
          CHANNELS 6 Xposition Yposition Zposition Zrotation Xrotation Yrotation
          JOINT Bip01_Head
          {
            OFFSET 1.54249 1.14441e-005 0
            CHANNELS 6 Xposition Yposition Zposition Zrotation Xrotation Yrotation
            JOINT BN_Mouth_01
            {
              OFFSET 2.32836 0.166542 0
              CHANNELS 6 Xposition Yposition Zposition Zrotation Xrotation Yrotation
              End Site
              {
                OFFSET 0 0 0
              }
            }
            JOINT BN_R_Ear_01
            {
              OFFSET 3.4208 -0.773972 -2.25959
              CHANNELS 6 Xposition Yposition Zposition Zrotation Xrotation Yrotation
              End Site
              {
                OFFSET 0 0 0
              }
            }
            JOINT BN_L_Ear_01
            {
              OFFSET 3.4208 -0.773976 2.25975
              CHANNELS 6 Xposition Yposition Zposition Zrotation Xrotation Yrotation
              End Site
              {
                OFFSET 0 0 0
              }
            }
            JOINT Bip01_HeadNub
            {
              OFFSET 6.74789 0 0
              CHANNELS 6 Xposition Yposition Zposition Zrotation Xrotation Yrotation
              End Site
              {
                OFFSET 0 0 0
              }
            }
          }
        }
      }
    }
  }
}
MOTION
Frames:	4
Frame Time:	0.0333333
34.2925 41.9406 1.29048 -0.863068 -87.5072 50.4696 0 0 0 -87.1034 3.80571 -89.7242 -2.28979 -2.39919 -3.06161e-008 164.067 77.3244 77.1179 9.67405 9.25926e-014 7.6294e-006 -4.691 -3.73593 8.65601 10.5192 5.96046e-008 2.13163e-014 -22.9172 5.20092 -25.4478 8.16754 -2.86102e-006 1.14441e-005 -21.8564 4.34264 -19.3208 2.25378 0.14515 0.0104953 45.366 -3.81902 4.77865 -1.48999 1.65642 -2.41181 -26.4159 -10.6862 171.441 9.47902 3.8147e-006 -1.24345e-014 -72.0305 -8.22751e-007 -9.42894e-007 8.42616 -3.8147e-006 4.26326e-014 -46.7843 -3.31397 -8.72283 1.4015 3.97627 -1.33794 104.761 -38.8502 32.8152 2.94554 0 -7.10543e-015 -18.3475 -6.57834e-006 1.03391e-005 2.52656 -1.90735e-006 0 -9.29921e-006 9.97936e-006 3.40935e-007 2.0973 6.93129 0.0278103 98.4297 0.0530618 0.0134471 3.07142 -3.8147e-006 2.38419e-007 -32.5213 0.0316613 -0.0496587 3.37999 -1.90735e-006 8.88179e-016 -1.05996e-005 -3.59234e-008 7.05057e-008 -1.88496 1.34023 2.30905 -40.2558 5.46284 -176.708 9.47902 3.8147e-006 1.77636e-015 -58.73 -8.5847e-006 -1.43852e-005 8.42617 -3.8147e-006 3.01981e-014 -45.3849 -0.494835 3.903 1.4015 3.97627 1.33796 87.1613 43.7524 -16.3842 2.94553 1.42109e-014 1.90735e-006 -20.3981 3.67859e-006 2.70947e-007 2.52656 1.90735e-006 3.55272e-015 179.96 -1.46656e-005 1.76753e-005 2.0973 6.93128 -0.0277902 106.794 -1.74865 2.50074 3.07141 -2.13163e-014 0 -29.6861 -0.00624299 0.0109743 3.38 5.72204e-006 -4.61853e-014 179.96 -3.05394e-005 -7.84686e-006 6.1717 -0.00487328 1.25946e-011 -13.027 2.45234 -1.86769 6.15895 -2.02442 -2.78436 -177.555 9.60006 77.3767 3.43915 3.8147e-006 -1.36424e-012 64.1457 76.4477 -91.2426 10.2529 -7.62939e-006 -7.10544e-014 -59.4857 5.47589 2.49356 16.2051 -3.8147e-006 0 45.0661 -28.5336 -32.0602 2.2539 2.1992 0.192039 66.2085 3.37347 -19.8626 2.17803 -1.99632 -0.219288 -71.0904 -0.195886 -15.1735 3.3071 1.42801 0.173912 19.1161 2.66511 -25.3879 3.93639 -0.76984 0.580936 -3.11849 3.15874 -19.9223 6.15897 -2.02445 2.78458 0.466577 2.85151 -102.153 3.43915 -4.47642e-013 -3.8147e-006 -63.8185 -76.2166 -93.8342 10.2529 -3.8147e-006 2.27374e-013 59.4589 -5.33665 2.15035 16.2051 -7.81598e-014 -5.72205e-006 -45.1496 28.7155 -32.1186 3.30715 -1.42802 0.17389 -22.0389 -1.15437 -27.3932 2.25391 -2.19923 0.192027 -68.8271 -0.520616 -20.2046 2.17805 1.99631 -0.219316 71.1034 0.164195 -15.358 3.93641 0.769834 0.580936 0.598659 -2.60221 -21.5143 7.02382 -0.812372 -3.1692e-009 11.4197 -2.62455e-006 6.91689e-007 1.54248 -7.6294e-006 -1.77636e-015 -51.2078 1.97322 -5.60468 2.10593 -0.356762 0.0332308 -94.1374 -0.0176239 -179.978 3.42079 -0.77397 -2.25959 126.79 9.11684 -179.124 3.42079 -0.77398 2.25975 -44.479 9.14015 1.43299 6.74789 -1.90735e-006 -8.88179e-016 -2.94819e-006 1.45355e-008 -2.85231e-008 
33.4645 41.255 1.28466 -12.5604 -86.9541 42.648 0 0 0 -87.1796 3.71569 -89.7252 -2.28979 -2.39919 -3.08062e-008 164.03 78.5035 74.0091 9.67405 8.12683e-014 7.6294e-006 -6.90372 -4.04761 16.14 10.5192 5.96046e-008 7.10543e-015 -22.6891 4.10116 -24.765 8.16754 -2.86102e-006 1.14441e-005 -29.8892 6.90377 -18.1701 2.25378 0.142126 0.0107338 45.4483 -4.00055 4.52104 -1.49716 1.66852 -2.39935 -27.7505 -10.1791 171.15 9.47902 3.8147e-006 -1.42109e-014 -73.0934 -1.67871e-006 -6.59231e-007 8.42616 -3.8147e-006 4.26326e-014 -45.6079 -3.85931 -9.12187 1.4015 3.97627 -1.33794 105.742 -38.7536 32.6879 2.94554 -1.42109e-014 2.13163e-014 -18.3475 -6.59053e-006 1.03643e-005 2.52656 -1.90735e-006 7.10543e-015 -9.29921e-006 9.97936e-006 3.40935e-007 2.0973 6.93129 0.0278103 98.937 0.214628 0.0484786 3.07142 -3.8147e-006 2.38419e-007 -32.9619 -4.98995e-007 -2.88171e-007 3.37999 -1.90735e-006 0 -1.05997e-005 -3.59252e-008 1.00884e-005 -1.87084 1.33756 2.32227 -39.5091 5.90577 -177.2 9.47902 3.8147e-006 8.88179e-016 -60.1592 -8.37519e-006 -1.45798e-005 8.42617 -3.8147e-006 1.68754e-014 -42.7164 -1.71008 4.26907 1.4015 3.97627 1.33796 87.3084 43.7354 -16.3519 2.94553 2.13163e-014 1.90735e-006 -20.3981 3.78062e-006 -6.48293e-008 2.52656 1.90735e-006 0 179.96 -1.46657e-005 1.76755e-005 2.0973 6.93128 -0.0277902 105.819 -1.78778 2.52115 3.07141 -1.06581e-014 1.77636e-015 -30.4698 -0.0281776 0.0479166 3.38 5.72204e-006 -6.03962e-014 179.96 -3.05395e-005 -7.84673e-006 6.1717 -0.00487328 1.34688e-011 -13.632 2.33507 -1.63096 6.15895 -2.02442 -2.78436 -177.504 9.9549 77.3731 3.43915 3.8147e-006 -1.35714e-012 89.6054 71.3185 -88.5483 10.2529 -7.62939e-006 2.13163e-014 -77.3287 3.89054 3.07991 16.2051 -3.8147e-006 -7.10543e-015 54.5508 -32.7252 -33.814 2.2539 2.1992 0.192039 65.2948 4.30348 -20.429 2.17803 -1.99632 -0.219288 -71.0933 -0.191099 -13.8921 3.3071 1.42801 0.173912 18.0997 3.3564 -30.6117 3.93639 -0.76984 0.580936 -4.30012 3.33814 -22.253 6.15897 -2.02445 2.78458 0.640809 3.68639 -102.074 3.43915 -4.54747e-013 -3.8147e-006 -89.4622 -71.2231 -89.8812 10.2529 -3.8147e-006 4.54748e-013 77.3001 -3.72468 2.70497 16.2051 3.55272e-014 -5.72205e-006 -54.6096 32.8401 -33.8347 3.30715 -1.42802 0.17389 -22.03 -1.16666 -33.7233 2.25391 -2.19923 0.192027 -68.8615 -0.518013 -21.2978 2.17805 1.99631 -0.219316 71.1119 0.17902 -14.1679 3.93641 0.769834 0.580936 0.590303 -2.64008 -25.4941 7.02382 -0.812372 -2.84419e-009 11.9672 -2.61563e-006 7.21884e-007 1.54248 -7.6294e-006 -6.66134e-016 -54.62 2.18813 -4.6004 2.10593 -0.356762 0.0332308 -92.9146 -0.0244598 -179.978 3.42079 -0.77397 -2.25959 134.26 7.77118 -178.592 3.42079 -0.77398 2.25975 -38.6809 8.3636 0.822952 6.74789 -1.90735e-006 -2.66454e-015 -2.94819e-006 1.45355e-008 -2.85231e-008 
32.4761 40.6106 1.2641 -22.5662 -86.3525 35.6712 0 0 0 -87.2578 3.62395 -89.726 -2.28979 -2.39919 -3.10028e-008 164.209 79.4585 70.7023 9.67405 6.26166e-014 7.6294e-006 -8.61407 -4.19238 21.3466 10.5192 5.96046e-008 0 -22.5633 2.97473 -23.885 8.16754 -2.86102e-006 1.14441e-005 -35.641 8.73978 -16.5845 2.25378 0.139161 0.0109703 45.2706 -4.17631 4.17235 -1.51479 1.67264 -2.38574 -29.3098 -9.5987 170.767 9.47902 3.8147e-006 -1.06581e-014 -73.538 -7.50562e-007 -9.18133e-007 8.42616 -3.8147e-006 3.90799e-014 -44.3776 -4.63154 -9.48456 1.4015 3.97627 -1.33794 107.271 -38.6037 32.4902 2.94554 -7.10543e-015 0 -18.3475 -6.64079e-006 1.03629e-005 2.52656 -1.90735e-006 7.10543e-015 -9.29921e-006 9.97936e-006 3.40935e-007 2.0973 6.93129 0.0278103 99.7401 0.470471 0.103861 3.07142 -3.8147e-006 2.38419e-007 -33.6522 -5.03456e-007 -2.3883e-007 3.37999 -1.90735e-006 -2.66454e-015 -1.05997e-005 -3.59252e-008 1.00884e-005 -1.85974 1.32734 2.33698 -38.755 6.39123 -177.698 9.47902 3.8147e-006 8.88179e-016 -61.3514 -8.21543e-006 -1.47357e-005 8.42617 -3.8147e-006 8.88179e-016 -39.6291 -3.11066 4.65614 1.4015 3.97627 1.33796 87.5387 43.7067 -16.2985 2.94553 2.13163e-014 1.90735e-006 -20.3981 3.50269e-007 9.08248e-006 2.52656 1.90735e-006 0 179.96 -1.46657e-005 1.76758e-005 2.0973 6.93128 -0.0277902 104.297 -1.85239 2.5431 3.07141 -2.4869e-014 1.77636e-015 -31.7207 9.94672e-006 6.47774e-006 3.38 5.72204e-006 -7.81597e-014 179.96 -3.05395e-005 -7.84658e-006 6.1717 -0.00487328 1.45119e-011 -14.0123 2.14376 -1.35764 6.15895 -2.02442 -2.78436 -177.453 10.3367 77.3709 3.43915 3.8147e-006 -1.36424e-012 105.87 67.747 -80.4058 10.2529 -7.62939e-006 -1.84741e-013 -90.7926 2.64049 3.51893 16.2051 -3.8147e-006 0 61.5965 -35.7037 -35.2373 2.2539 2.19921 0.192039 64.4067 5.22388 -20.9707 2.17803 -1.99632 -0.219287 -71.0928 -0.187643 -11.9955 3.3071 1.42801 0.173912 17.3714 3.73098 -34.1988 3.93639 -0.76984 0.580936 -5.22633 3.465 -23.7614 6.15897 -2.02445 2.78458 0.825382 4.6075 -101.932 3.43915 -3.97904e-013 -3.8147e-006 -106.111 -67.8705 -80.8531 10.2529 -3.8147e-006 4.61853e-013 90.7711 -2.50921 3.24031 16.2051 5.32908e-014 -5.72205e-006 -61.6091 35.7363 -35.2519 3.30715 -1.42802 0.17389 -22.0402 -1.15142 -38.184 2.25391 -2.19923 0.192027 -68.8933 -0.510698 -21.6838 2.17805 1.99631 -0.219316 71.0937 0.183422 -12.4043 3.93641 0.769834 0.580936 0.573482 -2.66217 -28.2939 7.02382 -0.812372 -2.47819e-009 12.5941 -2.60355e-006 7.56807e-007 1.54248 -7.6294e-006 3.10863e-015 -57.4434 2.2111 -3.45191 2.10593 -0.356762 0.0332308 -90.8914 -0.0283203 -179.977 3.42079 -0.77397 -2.25959 144.883 6.29031 -178.189 3.42079 -0.77398 2.25975 -30.5097 7.48319 -0.0522918 6.74789 -1.90735e-006 -1.33227e-015 -2.94819e-006 1.45354e-008 -2.85231e-008 
31.3294 40.0017 1.23037 -31.0871 -85.6726 29.5126 0 0 0 -87.3333 3.52782 -89.7271 -2.28979 -2.39919 -3.12084e-008 164.227 80.1125 67.6495 9.67405 4.9738e-014 7.6294e-006 -9.68905 -4.23119 23.3407 10.5192 5.96046e-008 1.42109e-014 -22.5788 1.82894 -22.7459 8.16754 -2.86102e-006 1.14441e-005 -38.1254 9.51982 -14.4104 2.25378 0.134805 0.010635 44.8589 -4.34422 3.73978 -1.54076 1.67031 -2.3702 -31.1166 -8.94216 170.325 9.47902 3.8147e-006 -7.10543e-015 -73.4769 -7.48077e-007 -8.92421e-007 8.42616 -3.8147e-006 4.08562e-014 -43.0641 -5.62737 -9.75396 1.4015 3.97627 -1.33794 109.292 -38.4158 32.202 2.94554 7.10543e-015 1.42109e-014 -18.3475 -6.74017e-006 1.03199e-005 2.52656 -1.90735e-006 0 -9.29921e-006 9.97936e-006 3.40935e-007 2.0973 6.93129 0.0278103 100.8 0.811085 0.171722 3.07142 -3.8147e-006 2.38419e-007 -34.5704 -0.00189506 0.00274914 3.37999 -1.90735e-006 -4.44089e-015 -1.05997e-005 -3.59252e-008 1.00884e-005 -1.84994 1.31059 2.35383 -38.026 6.93784 -178.265 9.47902 3.8147e-006 0 -62.3788 -8.10031e-006 -1.48662e-005 8.42617 -3.8147e-006 -1.24345e-014 -36.1456 -4.62943 5.13343 1.4015 3.97627 1.33796 87.8338 43.6794 -16.2075 2.94553 1.06581e-014 1.90735e-006 -20.3981 3.83894e-007 8.92205e-006 2.52656 1.90735e-006 0 179.96 -1.46659e-005 1.76761e-005 2.0973 6.93128 -0.0277902 102.268 -1.94105 2.56441 3.07141 -2.84217e-014 5.32907e-015 -33.3674 -0.00551606 0.008398 3.38 5.72204e-006 -1.06581e-013 179.96 -3.05393e-005 -7.84641e-006 6.1717 -0.00487328 1.57363e-011 -14.1921 1.88957 -1.05127 6.15895 -2.02442 -2.78436 -177.404 10.7276 77.37 3.43915 3.8147e-006 -1.37135e-012 114.317 66.1905 -73.129 10.2529 -7.62939e-006 -2.34479e-013 -96.2157 2.01711 3.69418 16.2051 -3.8147e-006 -1.42109e-014 64.3997 -36.8525 -35.8583 2.2539 2.19921 0.192039 64.0937 5.53985 -21.099 2.17803 -1.99632 -0.219288 -71.0924 -0.18411 -10.08 3.3071 1.42801 0.173912 17.0942 3.86947 -35.5878 3.93639 -0.769841 0.580936 -5.59655 3.50881 -24.3002 6.15897 -2.02445 2.78458 1.00905 5.58425 -101.715 3.43915 -3.83693e-013 -3.8147e-006 -114.942 -66.4707 -73.1008 10.2529 -3.8147e-006 4.47642e-013 96.2157 -2.01711 3.69418 16.2051 7.46071e-014 -5.72205e-006 -64.3795 36.8398 -35.8731 3.30715 -1.42802 0.17389 -22.0618 -1.14121 -39.9367 2.25391 -2.19923 0.192027 -68.9253 -0.503089 -22.0735 2.17805 1.99631 -0.219316 71.0753 0.187294 -10.6231 3.9364 0.769834 0.580936 0.548517 -2.66742 -29.3672 7.02382 -0.812372 -2.0721e-009 13.2981 -2.58829e-006 7.96489e-007 1.54248 -7.6294e-006 6.66134e-015 -59.7714 2.08011 -2.17334 2.10593 -0.356762 0.0332308 -88.8482 -0.0323333 -179.976 3.42079 -0.77397 -2.25959 157.638 4.71011 -177.887 3.42079 -0.77398 2.25975 -20.7599 6.50675 -1.12876 6.74789 -1.90735e-006 -6.66134e-016 -2.94819e-006 1.45355e-008 -2.85231e-008 
